<svg xmlns="http://www.w3.org/2000/svg" data-name="Layer 1" viewBox="0 0 64 80" x="0px" y="0px"><title>seo</title><path d="M32,7.25A24.75,24.75,0,1,0,45.82977,52.50708a4.72886,4.72886,0,0,0,6.67157-6.68427,24.6675,24.6675,0,0,0-.495-28.38434A24.82268,24.82268,0,0,0,32,7.25Zm0,1.5c3.38818,0,6.41882,4.86469,8.02948,11.906-.58783.0896-1.18115.17188-1.78522.241a12.784,12.784,0,0,0-12.48846,0c-.604-.06915-1.19739-.15137-1.78528-.241C25.58118,13.61462,28.61182,8.75,32,8.75ZM12.84509,18.86072a32.99027,32.99027,0,0,0,9.31439,3.01642q-.238,1.25308-.41846,2.57758a12.6909,12.6909,0,0,0-2.449,6.79529H8.77924A23.05257,23.05257,0,0,1,12.84509,18.86072Zm0,26.27856A23.05257,23.05257,0,0,1,8.77924,32.75H19.29205a12.6909,12.6909,0,0,0,2.449,6.79529q.17825,1.32532.41846,2.57764A32.99348,32.99348,0,0,0,12.84509,45.13928ZM32,55.25c-3.38818,0-6.41882-4.86469-8.02948-11.906.58783-.0896,1.18115-.17187,1.78522-.241a12.703,12.703,0,0,0,12.4884,0c.37457.04285.744.09167,1.11249.1424l.56476.56482C38.28528,50.59985,35.31311,55.25,32,55.25Zm5.90881-13.6886a11.16473,11.16473,0,0,1-2.92535,1.27466,11.32168,11.32168,0,0,1-5.967,0,11.40686,11.40686,0,0,1-4.97156-2.881,11.28116,11.28116,0,0,1-.84723-.95721,11.14315,11.14315,0,0,1-1.837-3.38464,11.27992,11.27992,0,0,1,0-7.22644,11.14315,11.14315,0,0,1,1.837-3.38464,10.74941,10.74941,0,0,1,2.89374-2.56354,11.16828,11.16828,0,0,1,2.92578-1.27466,11.09253,11.09253,0,0,1,5.96564,0,11.40918,11.40918,0,0,1,4.97223,2.881,11.28116,11.28116,0,0,1,.84723.95721,11.14315,11.14315,0,0,1,1.837,3.38464,11.27992,11.27992,0,0,1,0,7.22644,11.14315,11.14315,0,0,1-1.837,3.38464,10.75231,10.75231,0,0,1-2.89349,2.56354Zm3.99054,2.106-.01337-.01337-.29791-.298-1.28577-1.28607-.17047-.17053.04883-.04883.20087-.20087.63409-.63409.88379-.88379.24036.2403,1.52765,1.52722-.48944.4892-.39478.39465-.87463.87494Zm9.3692,7.60114a3.32237,3.32237,0,0,1-4.59619,0l-.69971-.69971-.0058-.0058-3.53717-3.53717a1.25132,1.25132,0,0,1,0-1.76758l1.22809-1.22852.186-.186,1.04834-1.048.36621-.36609a1.25132,1.25132,0,0,1,1.76758,0l1.534,1.534,2.0072,2.0072.70148.70148a3.321,3.321,0,0,1,0,4.59619Zm.16791-6.54938-3.35-3.35a2.8191,2.8191,0,0,0-3.26953-.44128L42.743,38.85425a12.70917,12.70917,0,0,0,1.965-6.10425H55.22076A23.04044,23.04044,0,0,1,51.43646,44.71918ZM44.70795,31.25a12.69109,12.69109,0,0,0-2.449-6.79535q-.17825-1.32532-.41846-2.57758a32.99348,32.99348,0,0,0,9.31439-3.01636A23.05257,23.05257,0,0,1,55.22076,31.25Z"/><path d="M32,23.25a8.742,8.742,0,0,0-8.71344,8c-.021.24835-.03656.49786-.03656.75s.01556.50165.03656.75A8.67866,8.67866,0,0,0,25.813,38.187a.74992.74992,0,1,0,1.06055-1.06055,7.19223,7.19223,0,0,1-2.084-4.37646,7.14185,7.14185,0,0,1,0-1.5,7.24946,7.24946,0,0,1,12.337-4.37646A.74992.74992,0,1,0,38.187,25.813,8.69089,8.69089,0,0,0,32,23.25Z"/><text x="0" y="79" fill="#000000" font-size="5px" font-weight="bold" font-family="'Helvetica Neue', Helvetica, Arial-Unicode, Arial, Sans-serif">Created by scribble.glyph</text><text x="0" y="84" fill="#000000" font-size="5px" font-weight="bold" font-family="'Helvetica Neue', Helvetica, Arial-Unicode, Arial, Sans-serif">from the Noun Project</text></svg>